<svg width="35" height="30" viewBox="0 0 35 30" fill="none" xmlns="http://www.w3.org/2000/svg">
<path fill-rule="evenodd" clip-rule="evenodd" d="M16.3374 0.398827C17.0004 -0.132942 17.9996 -0.132942 18.6626 0.398827L34.4126 13.0304C35.135 13.6098 35.2001 14.6078 34.558 15.2595C33.9158 15.9113 32.8097 15.97 32.0873 15.3906L31.5 14.9196V26.8421C31.5 28.5862 29.933 30 28 30H7.00001C5.06702 30 3.50002 28.5862 3.50002 26.8421V14.9196L2.91265 15.3906C2.19028 15.97 1.08416 15.9113 0.442052 15.2595C-0.200054 14.6078 -0.134988 13.6098 0.587381 13.0304L16.3374 0.398827ZM7.00001 12.1126V26.8421H12.25V18.9474C12.25 18.0753 13.0335 17.3684 14 17.3684H21C21.9665 17.3684 22.75 18.0753 22.75 18.9474V26.8421H28V12.1126L17.5 3.69151L7.00001 12.1126ZM19.25 26.8421V20.5263H15.75V26.8421H19.25Z" fill="#212121"/>
</svg>
