<svg width="74" height="81" viewBox="0 0 74 81" fill="none" xmlns="http://www.w3.org/2000/svg">
<circle cx="28" cy="37" r="4" fill="#F81F1F"/>
<circle cx="40" cy="37" r="4" fill="#FF7A00"/>
<circle cx="52" cy="37" r="4" fill="#61FF00"/>
<path d="M4.945 66.16C5.46833 66.16 5.955 66.0833 6.405 65.93C6.85833 65.7767 7.25667 65.57 7.6 65.31L7.24 64.675C6.94667 64.9117 6.60667 65.0933 6.22 65.22C5.83333 65.3467 5.42333 65.41 4.99 65.41C4.46667 65.41 3.98667 65.32 3.55 65.14C3.11667 64.96 2.74 64.71 2.42 64.39C2.1 64.0667 1.85167 63.6917 1.675 63.265C1.50167 62.835 1.415 62.3733 1.415 61.88C1.415 61.3833 1.50167 60.9217 1.675 60.495C1.85167 60.0683 2.1 59.695 2.42 59.375C2.74 59.0517 3.11667 58.8 3.55 58.62C3.98667 58.44 4.46667 58.35 4.99 58.35C5.42333 58.35 5.83333 58.4133 6.22 58.54C6.60667 58.6667 6.94667 58.8483 7.24 59.085L7.6 58.45C7.25333 58.1867 6.85333 57.98 6.4 57.83C5.94667 57.6767 5.46167 57.6 4.945 57.6C4.325 57.6 3.75 57.7083 3.22 57.925C2.69333 58.1417 2.23167 58.445 1.835 58.835C1.44167 59.2217 1.135 59.675 0.915 60.195C0.695 60.715 0.585 61.2767 0.585 61.88C0.585 62.4833 0.695 63.045 0.915 63.565C1.135 64.085 1.44167 64.54 1.835 64.93C2.22833 65.3167 2.69 65.6183 3.22 65.835C3.75 66.0517 4.325 66.16 4.945 66.16ZM13.0371 66.16C13.6138 66.16 14.1538 66.05 14.6571 65.83C15.1604 65.61 15.6021 65.305 15.9821 64.915C16.3621 64.5217 16.6588 64.0667 16.8721 63.55C17.0888 63.03 17.1971 62.4733 17.1971 61.88C17.1971 61.2833 17.0888 60.7267 16.8721 60.21C16.6588 59.6933 16.3621 59.24 15.9821 58.85C15.6021 58.4567 15.1604 58.15 14.6571 57.93C14.1538 57.71 13.6138 57.6 13.0371 57.6C12.4604 57.6 11.9204 57.71 11.4171 57.93C10.9138 58.15 10.4721 58.4567 10.0921 58.85C9.71211 59.24 9.41378 59.6933 9.19711 60.21C8.98378 60.7267 8.87711 61.2833 8.87711 61.88C8.87711 62.4733 8.98378 63.03 9.19711 63.55C9.41378 64.0667 9.71211 64.5217 10.0921 64.915C10.4721 65.305 10.9138 65.61 11.4171 65.83C11.9204 66.05 12.4604 66.16 13.0371 66.16ZM13.0371 65.425C12.5671 65.425 12.1288 65.335 11.7221 65.155C11.3188 64.975 10.9638 64.7233 10.6571 64.4C10.3538 64.0767 10.1171 63.7 9.94711 63.27C9.77711 62.84 9.69211 62.3767 9.69211 61.88C9.69211 61.3833 9.77711 60.92 9.94711 60.49C10.1171 60.06 10.3538 59.6833 10.6571 59.36C10.9638 59.0367 11.3188 58.785 11.7221 58.605C12.1288 58.425 12.5671 58.335 13.0371 58.335C13.5071 58.335 13.9438 58.425 14.3471 58.605C14.7504 58.785 15.1038 59.0367 15.4071 59.36C15.7138 59.6833 15.9521 60.06 16.1221 60.49C16.2921 60.92 16.3771 61.3833 16.3771 61.88C16.3771 62.3767 16.2921 62.84 16.1221 63.27C15.9521 63.7 15.7138 64.0767 15.4071 64.4C15.1038 64.7233 14.7504 64.975 14.3471 65.155C13.9438 65.335 13.5071 65.425 13.0371 65.425ZM19.3821 66H20.1421V59.055L24.5721 66H25.3321V57.75H24.5721V64.705L20.1421 57.75H19.3821V66ZM28.0247 66H28.7847V59.055L33.2147 66H33.9747V57.75H33.2147V64.705L28.7847 57.75H28.0247V66ZM36.6673 66H40.8223V65.33H37.4273V62.2H40.7023V61.53H37.4273V58.42H40.8223V57.75H36.6673V66ZM46.6442 66.16C47.1676 66.16 47.6542 66.0833 48.1042 65.93C48.5576 65.7767 48.9559 65.57 49.2992 65.31L48.9392 64.675C48.6459 64.9117 48.3059 65.0933 47.9192 65.22C47.5326 65.3467 47.1226 65.41 46.6892 65.41C46.1659 65.41 45.6859 65.32 45.2492 65.14C44.8159 64.96 44.4392 64.71 44.1192 64.39C43.7992 64.0667 43.5509 63.6917 43.3742 63.265C43.2009 62.835 43.1142 62.3733 43.1142 61.88C43.1142 61.3833 43.2009 60.9217 43.3742 60.495C43.5509 60.0683 43.7992 59.695 44.1192 59.375C44.4392 59.0517 44.8159 58.8 45.2492 58.62C45.6859 58.44 46.1659 58.35 46.6892 58.35C47.1226 58.35 47.5326 58.4133 47.9192 58.54C48.3059 58.6667 48.6459 58.8483 48.9392 59.085L49.2992 58.45C48.9526 58.1867 48.5526 57.98 48.0992 57.83C47.6459 57.6767 47.1609 57.6 46.6442 57.6C46.0242 57.6 45.4492 57.7083 44.9192 57.925C44.3926 58.1417 43.9309 58.445 43.5342 58.835C43.1409 59.2217 42.8342 59.675 42.6142 60.195C42.3942 60.715 42.2842 61.2767 42.2842 61.88C42.2842 62.4833 42.3942 63.045 42.6142 63.565C42.8342 64.085 43.1409 64.54 43.5342 64.93C43.9276 65.3167 44.3892 65.6183 44.9192 65.835C45.4492 66.0517 46.0242 66.16 46.6442 66.16ZM52.8113 66H53.5713V58.44H56.0963V57.75H50.2963V58.44H52.8113V66ZM57.9954 66H62.1504V65.33H58.7554V62.2H62.0304V61.53H58.7554V58.42H62.1504V57.75H57.9954V66ZM64.3723 66H66.2323C66.819 66 67.364 65.8967 67.8673 65.69C68.374 65.48 68.8157 65.1883 69.1923 64.815C69.5723 64.4383 69.8673 64 70.0773 63.5C70.2873 63 70.3923 62.46 70.3923 61.88C70.3923 61.3 70.2857 60.76 70.0723 60.26C69.8623 59.7567 69.5673 59.3183 69.1873 58.945C68.8107 58.5683 68.3707 58.275 67.8673 58.065C67.364 57.855 66.819 57.75 66.2323 57.75H64.3723V66ZM65.1323 65.32V58.43H66.1623C66.6457 58.43 67.0957 58.5183 67.5123 58.695C67.929 58.8683 68.2923 59.1117 68.6023 59.425C68.9157 59.7383 69.159 60.1033 69.3323 60.52C69.5057 60.9367 69.5923 61.3883 69.5923 61.875C69.5923 62.3617 69.5057 62.815 69.3323 63.235C69.159 63.6517 68.9157 64.0167 68.6023 64.33C68.2923 64.64 67.929 64.8833 67.5123 65.06C67.0957 65.2333 66.6457 65.32 66.1623 65.32H65.1323Z" fill="black"/>
<path d="M19.9 26.54C20.04 29.5 20.11 32.68 20.11 36.08C20.11 39.06 20.04 42.62 19.9 46.76C19.9 46.86 19.85 46.91 19.75 46.91L18.76 46.85C16.62 44.29 14.52 42.28 12.46 40.82C9.36 42.3 6.17 44.35 2.89 46.97L1.9 47.03C1.8 47.03 1.75 46.98 1.75 46.88C1.65 43.58 1.6 40.66 1.6 38.12C1.6 34.02 1.7 30.18 1.9 26.6C1.9 26.5 1.95 26.45 2.05 26.45L2.89 26.51C2.99 26.51 3.04 26.56 3.04 26.66C2.84 30.34 2.74 34.27 2.74 38.45C2.74 40.77 2.77 43.13 2.83 45.53C6.27 42.89 9.53 40.88 12.61 39.5C14.69 40.94 16.76 42.82 18.82 45.14C18.92 41.84 18.97 38.85 18.97 36.17C18.97 32.75 18.9 29.56 18.76 26.6C18.76 26.5 18.81 26.45 18.91 26.45L19.75 26.39C19.85 26.39 19.9 26.44 19.9 26.54ZM71.4564 46.79C71.4764 46.85 71.4664 46.9 71.4264 46.94C71.3864 46.96 71.3464 46.97 71.3064 46.97C68.8664 47.07 66.9964 47.12 65.6964 47.12C64.4164 47.12 62.5264 47.07 60.0264 46.97C60.1664 44.05 60.2464 41.55 60.2664 39.47L59.5164 39.41L59.5464 38.27L60.2964 38.33V36.41C60.2964 33.29 60.2364 29.98 60.1164 26.48C60.7564 26.46 61.7064 26.45 62.9664 26.45C65.0864 26.45 66.9864 26.49 68.6664 26.57C68.7264 26.57 68.7664 26.6 68.7864 26.66C68.8264 26.7 68.8364 26.74 68.8164 26.78L68.6064 27.59C68.6064 27.63 68.5864 27.66 68.5464 27.68C68.5264 27.7 68.4964 27.71 68.4564 27.71C66.5364 27.63 65.0864 27.59 64.1064 27.59C63.4864 27.59 62.5364 27.61 61.2564 27.65C61.3764 30.49 61.4364 33.17 61.4364 35.69C61.4364 36.89 61.4264 37.79 61.4064 38.39C62.3664 38.45 63.3264 38.48 64.2864 38.48H65.2464C65.3064 38.48 65.3564 38.51 65.3964 38.57C65.4364 38.61 65.4464 38.65 65.4264 38.69L65.2464 39.47C65.2464 39.55 65.1964 39.59 65.0964 39.59H64.1064C63.5064 39.59 62.6064 39.57 61.4064 39.53C61.3264 42.25 61.2464 44.35 61.1664 45.83C62.9864 45.91 64.6764 45.95 66.2364 45.95C67.8164 45.95 69.4564 45.91 71.1564 45.83C71.2564 45.83 71.3064 45.87 71.3064 45.95L71.4564 46.79Z" fill="black"/>
</svg>
